<?xml version="1.0" encoding="UTF-8" standalone="no"?>
<!DOCTYPE svg PUBLIC "-//W3C//DTD SVG 1.1//EN"
 "http://www.w3.org/Graphics/SVG/1.1/DTD/svg11.dtd">
<!-- Generated by graphviz version 2.43.0 (0)
 -->
<!-- Title: %3 Pages: 1 -->
<svg width="339pt" height="376pt"
 viewBox="0.00 0.00 339.39 376.48" xmlns="http://www.w3.org/2000/svg" xmlns:xlink="http://www.w3.org/1999/xlink">
<g id="graph0" class="graph" transform="scale(1 1) rotate(0) translate(4 372.48)">
<title>%3</title>
<polygon fill="white" stroke="transparent" points="-4,4 -4,-372.48 335.39,-372.48 335.39,4 -4,4"/>
<!-- write -->
<g id="node1" class="node">
<title>write</title>
<polygon fill="lightgray" stroke="black" points="107.89,-368.48 66.89,-368.48 66.89,-350.48 107.89,-350.48 107.89,-368.48"/>
<text text-anchor="middle" x="87.39" y="-357.28" font-family="Times,serif" font-size="9.00">write</text>
</g>
<!-- 8640 -->
<g id="node6" class="node">
<title>8640</title>
<ellipse fill="white" stroke="black" cx="59.39" cy="-285.48" rx="28.98" ry="28.98"/>
<text text-anchor="middle" x="59.39" y="-283.28" font-family="Times,serif" font-size="9.00">8640</text>
</g>
<!-- write&#45;&gt;8640 -->
<g id="edge6" class="edge">
<title>write&#45;&gt;8640</title>
<path fill="none" stroke="red" stroke-width="0.39" stroke-dasharray="1,5" d="M84.18,-350.22C81.48,-343.26 77.41,-332.8 73.34,-322.35"/>
<polygon fill="red" stroke="red" stroke-width="0.39" points="76.54,-320.91 69.65,-312.86 70.01,-323.45 76.54,-320.91"/>
</g>
<!-- 327 -->
<g id="node7" class="node">
<title>327</title>
<ellipse fill="white" stroke="black" cx="116.39" cy="-195.74" rx="25" ry="25"/>
<text text-anchor="middle" x="116.39" y="-193.54" font-family="Times,serif" font-size="9.00">327</text>
</g>
<!-- write&#45;&gt;327 -->
<g id="edge5" class="edge">
<title>write&#45;&gt;327</title>
<path fill="none" stroke="green" stroke-width="0.5" stroke-dasharray="1,5" d="M89.39,-350.4C91.53,-341.6 94.94,-327.09 97.39,-314.48 102.87,-286.27 107.99,-254.06 111.53,-230.46"/>
<polygon fill="green" stroke="green" stroke-width="0.5" points="115.04,-230.68 113.04,-220.28 108.11,-229.65 115.04,-230.68"/>
</g>
<!-- read -->
<g id="node2" class="node">
<title>read</title>
<polygon fill="lightgray" stroke="black" points="206.39,-294.48 168.39,-294.48 168.39,-276.48 206.39,-276.48 206.39,-294.48"/>
<text text-anchor="middle" x="187.39" y="-283.28" font-family="Times,serif" font-size="9.00">read</text>
</g>
<!-- 1 -->
<g id="node5" class="node">
<title>1</title>
<ellipse fill="lightblue" stroke="black" cx="182.39" cy="-16.26" rx="16.03" ry="16.03"/>
<text text-anchor="middle" x="182.39" y="-14.06" font-family="Times,serif" font-size="9.00">1</text>
</g>
<!-- read&#45;&gt;1 -->
<g id="edge12" class="edge">
<title>read&#45;&gt;1</title>
<path fill="none" stroke="red" stroke-width="0.16" d="M191.64,-276.39C206.27,-247.38 252.17,-146.26 224.39,-68.53 219.84,-55.79 210.61,-43.94 201.96,-34.85"/>
<polygon fill="red" stroke="red" stroke-width="0.16" points="204.22,-32.15 194.64,-27.62 199.3,-37.13 204.22,-32.15"/>
</g>
<!-- read&#45;&gt;327 -->
<g id="edge2" class="edge">
<title>read&#45;&gt;327</title>
<path fill="none" stroke="green" stroke-width="3.52" d="M180.84,-276.39C171.2,-264.47 152.73,-241.65 138.03,-223.48"/>
<polygon fill="green" stroke="green" stroke-width="3.52" points="140.59,-221.08 131.58,-215.51 135.15,-225.49 140.59,-221.08"/>
</g>
<!-- 11414 -->
<g id="node8" class="node">
<title>11414</title>
<ellipse fill="white" stroke="black" cx="182.39" cy="-101.76" rx="33.47" ry="33.47"/>
<text text-anchor="middle" x="182.39" y="-99.56" font-family="Times,serif" font-size="9.00">11414</text>
</g>
<!-- read&#45;&gt;11414 -->
<g id="edge13" class="edge">
<title>read&#45;&gt;11414</title>
<path fill="none" stroke="green" stroke-width="0.21" d="M187.16,-276.2C186.54,-253.45 184.76,-188.76 183.56,-145.15"/>
<polygon fill="green" stroke="green" stroke-width="0.21" points="187.06,-145 183.28,-135.1 180.06,-145.19 187.06,-145"/>
</g>
<!-- sequence -->
<g id="node3" class="node">
<title>sequence</title>
<polygon fill="lightgray" stroke="black" points="331.39,-110.76 271.39,-110.76 271.39,-92.76 331.39,-92.76 331.39,-110.76"/>
<text text-anchor="middle" x="301.39" y="-99.56" font-family="Times,serif" font-size="9.00">sequence</text>
</g>
<!-- sequence&#45;&gt;1 -->
<g id="edge1" class="edge">
<title>sequence&#45;&gt;1</title>
<path fill="none" stroke="green" stroke-width="2.31" d="M290.61,-92.71C281.75,-86.13 268.83,-76.62 257.39,-68.53 239.59,-55.93 219.13,-41.98 204.09,-31.82"/>
<polygon fill="green" stroke="green" stroke-width="2.31" points="205.74,-28.71 195.49,-26.03 201.83,-34.52 205.74,-28.71"/>
</g>
<!-- output -->
<g id="node4" class="node">
<title>output</title>
<ellipse fill="lightblue" stroke="black" cx="60.39" cy="-101.76" rx="33.47" ry="33.47"/>
<text text-anchor="middle" x="60.39" y="-99.56" font-family="Times,serif" font-size="9.00">output</text>
</g>
<!-- 1&#45;&gt;8640 -->
<g id="edge11" class="edge">
<title>1&#45;&gt;8640</title>
<path fill="none" stroke="green" stroke-width="0.29" d="M166.08,-16.63C131.95,-16.32 53.29,-21.06 18.39,-68.53 -21.79,-123.18 13.6,-206.06 38.98,-251.61"/>
<polygon fill="green" stroke="green" stroke-width="0.29" points="36.05,-253.53 44.06,-260.47 42.13,-250.06 36.05,-253.53"/>
</g>
<!-- 8640&#45;&gt;327 -->
<g id="edge7" class="edge">
<title>8640&#45;&gt;327</title>
<path fill="none" stroke="red" stroke-width="0.29" stroke-dasharray="1,5" d="M74.97,-260.51C81.99,-249.7 90.34,-236.84 97.7,-225.52"/>
<polygon fill="red" stroke="red" stroke-width="0.29" points="100.83,-227.12 103.34,-216.83 94.96,-223.31 100.83,-227.12"/>
</g>
<!-- 327&#45;&gt;output -->
<g id="edge3" class="edge">
<title>327&#45;&gt;output</title>
<path fill="none" stroke="green" stroke-width="2.25" d="M103.96,-174.33C97.7,-164.04 89.91,-151.24 82.66,-139.33"/>
<polygon fill="green" stroke="green" stroke-width="2.25" points="85.44,-137.17 77.25,-130.44 79.46,-140.81 85.44,-137.17"/>
</g>
<!-- 327&#45;&gt;1 -->
<g id="edge8" class="edge">
<title>327&#45;&gt;1</title>
<path fill="none" stroke="red" stroke-width="0.61" d="M117.43,-170.88C119.35,-144.66 124.81,-101.87 140.39,-68.53 146.12,-56.27 155.44,-44.46 163.85,-35.27"/>
<polygon fill="red" stroke="red" stroke-width="0.61" points="166.5,-37.57 170.9,-27.93 161.45,-32.72 166.5,-37.57"/>
</g>
<!-- 327&#45;&gt;327 -->
<g id="edge4" class="edge">
<title>327&#45;&gt;327</title>
<path fill="none" stroke="green" stroke-width="0.37" d="M136.18,-211.21C148.01,-214.65 159.14,-209.49 159.14,-195.74 159.14,-186.08 153.64,-180.66 146.26,-179.49"/>
<polygon fill="green" stroke="green" stroke-width="0.37" points="145.88,-176 136.18,-180.27 146.42,-182.98 145.88,-176"/>
</g>
<!-- 327&#45;&gt;11414 -->
<g id="edge9" class="edge">
<title>327&#45;&gt;11414</title>
<path fill="none" stroke="red" stroke-width="0.51" d="M130.39,-175.24C138.27,-164.25 148.35,-150.2 157.54,-137.4"/>
<polygon fill="red" stroke="red" stroke-width="0.51" points="160.42,-139.38 163.41,-129.22 154.73,-135.3 160.42,-139.38"/>
</g>
<!-- 11414&#45;&gt;1 -->
<g id="edge10" class="edge">
<title>11414&#45;&gt;1</title>
<path fill="none" stroke="green" stroke-width="0.29" d="M182.39,-68.24C182.39,-59.8 182.39,-50.84 182.39,-42.81"/>
<polygon fill="green" stroke="green" stroke-width="0.29" points="185.89,-42.6 182.39,-32.6 178.89,-42.6 185.89,-42.6"/>
</g>
</g>
</svg>
